<svg width="31" height="31" viewBox="0 0 31 31" fill="none" xmlns="http://www.w3.org/2000/svg">
<path d="M8.84488 30.3694C8.4011 30.4883 7.91199 30.438 7.48294 30.1903C6.62485 29.6948 6.33073 28.5972 6.82597 27.7384L21.7756 1.84585C22.271 0.98775 23.3687 0.693634 24.2275 1.18887C25.0856 1.68429 25.3797 2.78195 24.8845 3.64074L9.93412 29.5335C9.81661 29.7377 9.65988 29.9167 9.47295 30.0602C9.28602 30.2036 9.07257 30.3087 8.84488 30.3694Z" fill="#6633B8"/>
<path d="M29.2657 24.8976C28.822 25.0165 28.3328 24.9662 27.9038 24.7185L2.01124 9.76887C1.15314 9.27345 0.859029 8.17579 1.35427 7.317C1.84969 6.4589 2.94734 6.16479 3.80613 6.66003L29.6994 21.6095C30.5575 22.1049 30.8516 23.2026 30.3564 24.0614C30.2385 24.2657 30.0815 24.4447 29.8944 24.5882C29.7072 24.7317 29.4936 24.8368 29.2657 24.8976Z" fill="#6633B8"/>
</svg>
